<svg xmlns="http://www.w3.org/2000/svg" viewBox="0 0 7.94 7.94">
  <path fill="#444" d="M3.55.37C2.15.4 1.23.47.71.9c-.26.23-.4.55-.42.97-.02.4.07.92.25 1.57.13 1.11.08 2.26.08 3.4 0 .22.08.4.21.52.13.13.31.2.51.25.41.08.94.05 1.5-.01C4 7.49 5.32 7.25 6 7.43c.64.17 1.09.09 1.35-.2.27-.28.33-.72.33-1.2 0-.47-.07-1-.12-1.5-.06-.49-.1-.95-.04-1.27a3.6 3.6 0 00-.04-1.85 1.47 1.47 0 00-.87-.88C5.8.22 4.7.34 3.55.37zm0 .27C4.74.6 5.83.5 6.52.78c.34.14.59.35.72.73.14.37.17.92.03 1.7-.07.38-.02.86.03 1.35.06.5.13 1.03.13 1.48 0 .45-.08.81-.26 1.01-.19.2-.5.28-1.1.12-.81-.22-2.12.05-3.24.17-.56.06-1.07.09-1.42.01a.78.78 0 01-.38-.17C.94 7.1.89 7.01.89 6.85c0-1.13.05-2.3-.09-3.44a.13.13 0 000-.02 5.05 5.05 0 01-.25-1.5c.02-.37.13-.6.33-.77.4-.35 1.29-.45 2.68-.48z" />
</svg>
