<svg xmlns="http://www.w3.org/2000/svg" viewBox="0 0 7.94 7.94">
  <path fill="#444" d="M3.51.37c-.17 0-.34.02-.5.03C2.3.48 1.57.43.83.56.7.6.6.71.56.83a1.1 1.1 0 00-.03.39c0 .27.07.57.07.75.01.75.07 1.5.03 2.22-.04.78-.12 1.56-.15 2.35 0 .18.02.33.1.44.09.1.21.15.33.17.22.03.44-.03.61-.01.51.06 1.02.04 1.53 0 .57-.05 1.16 0 1.75.01.5.01 1 .05 1.5.12.14.02.42.09.66.1.13 0 .25-.02.36-.09a.38.38 0 00.16-.37c-.06-.47.08-.98.06-1.52-.03-.64-.16-1.28 0-1.83.14-.51-.05-1-.03-1.43a.15.15 0 00-.06-.12c-.12-.1-.2-.24-.43-.36-.33-.2-.54-.5-.88-.77A1.77 1.77 0 005.01.42c-.5-.02-1-.06-1.5-.05zm0 .3c.42 0 .85.02 1.27.04-.05.34.04.78.07 1.16.02.19.03.36 0 .46a.2.2 0 01-.04.1h-.04c-.74 0-1.56-.3-2.36-.07a.63.63 0 01-.25.03c-.05-.01-.07-.03-.1-.05-.03-.05-.05-.2-.04-.38.01-.19.05-.42.07-.63.02-.2.03-.4-.04-.57.33-.01.65-.02.98-.06l.49-.03zm1.55.06c.37.02.56.13.9.39.29.23.5.55.9.78.15.09.23.18.35.3 0 .47.14.91.03 1.28-.18.65-.03 1.31 0 1.92.01.48-.13 1-.06 1.55 0 .07 0 .07-.02.08a.45.45 0 01-.2.03c-.19 0-.44-.06-.62-.08-.5-.08-1.02-.12-1.53-.13-.58-.01-1.18-.06-1.79 0-.49.04-.98.05-1.46 0-.25-.04-.49.02-.62 0-.06 0-.09-.02-.11-.05-.02-.03-.05-.1-.05-.25.03-.78.1-1.55.15-2.34C.97 3.45.91 2.7.9 1.96c0-.23-.06-.52-.07-.76 0-.12 0-.22.02-.28C.87.86.87.86.9.86c.29-.06.58-.08.87-.09a.14.14 0 00.02.05c.04.1.05.28.03.48l-.08.64c-.01.2-.01.4.1.56.07.08.16.14.27.16.11.01.23 0 .37-.04.68-.2 1.48.09 2.29.09.1 0 .18-.04.24-.1a.44.44 0 00.11-.22c.04-.16.03-.34 0-.55-.03-.4-.1-.87-.06-1.11zm-1.11 2.8c-.5-.02-.9.23-1.1.58a1 1 0 00.22 1.3.14.14 0 00.04.02l.19.09c.09.04.2.07.32.07.76-.02 1.25-.43 1.36-.9a.87.87 0 00-.12-.7c-.14-.2-.37-.36-.7-.43a1.42 1.42 0 00-.21-.03zm-.02.28c.06 0 .12 0 .18.02a.8.8 0 01.52.31c.1.15.13.31.08.48-.08.34-.43.68-1.1.7a.54.54 0 01-.2-.05l-.16-.08a.72.72 0 01-.17-.95.9.9 0 01.85-.43z" />
</svg>
