<svg xmlns="http://www.w3.org/2000/svg" viewBox="0 0 7.94 7.94">
  <path fill="#444" d="M4.82.31a.88.88 0 00-.47.18c-.23.17-.34.38-.33.6 0 .2.12.38.28.53.3.3.77.5 1.12.56.25.04.68.08 1.05 0a.85.85 0 00.47-.27c.12-.14.17-.35.1-.59a1.14 1.14 0 00-.28-.49.85.85 0 00-.55-.28c-.26-.02-.58-.13-.9-.2a1.69 1.69 0 00-.5-.04zm-2.77.1c-.46 0-.97.16-1.32.5a.14.14 0 00-.01.02c-.32.42-.41.8-.33 1.13a1 1 0 00.65.66c.61.23 1.48.06 1.88-.67.22-.4.27-.74.17-1.02a.9.9 0 00-.6-.54 1.58 1.58 0 00-.44-.07zm2.8.18c.12-.01.26 0 .4.03.3.07.62.19.94.2a.6.6 0 01.37.2c.11.12.2.27.22.38.05.17.02.26-.04.33a.61.61 0 01-.33.17c-.3.08-.72.04-.95 0a2.1 2.1 0 01-.98-.48c-.12-.12-.19-.25-.2-.35 0-.1.05-.22.23-.36.1-.08.21-.11.34-.12zM2.05.7c.12 0 .25.02.36.05.21.07.36.2.43.37.06.18.04.44-.16.8-.33.6-1.05.73-1.54.54-.25-.1-.43-.26-.48-.48-.06-.2 0-.5.27-.86C1.22.84 1.66.7 2.05.7zM3.5 2.4a.94.94 0 00-.55.2c-.3.24-.44.61-.4 1-.01.21.05.4.17.54.12.14.3.22.48.26.36.09.78 0 1.06-.25a.94.94 0 00.33-.72A1.1 1.1 0 003.51 2.4zm.01.23c.05 0 .1 0 .14.02a.88.88 0 01.7.79c.01.18-.05.36-.24.53-.2.19-.57.27-.86.2a.66.66 0 01-.35-.2.5.5 0 01-.12-.38.12.12 0 000-.01c-.03-.31.07-.6.3-.79a.7.7 0 01.43-.16zm2.44.08a.9.9 0 00-.72.37c-.16.23-.18.56-.05.96.07.35.3.63.58.82.29.18.63.3.95.3.32 0 .63-.1.8-.35.18-.25.2-.63 0-1.1a1.63 1.63 0 00-1.56-1zm.01.27c.46-.02 1.06.26 1.3.83.17.43.14.68.03.84-.1.15-.31.23-.58.23-.26 0-.56-.1-.8-.26a1.01 1.01 0 01-.47-.64.14.14 0 000-.02c-.12-.35-.08-.58.02-.73.1-.15.28-.23.5-.25zM1.95 4.51c-.36 0-.7.07-1.02.27-.18.11-.33.27-.45.45-.13.19-.18.4-.2.6-.03.32-.03.67.14.98.11.19.27.3.4.42.16.16.36.22.58.26a.1.1 0 00.04.02.1.1 0 00.03 0c.04 0 .12.04.24.02l.54-.07c.2-.04.38-.17.51-.3.21-.23.33-.5.4-.77.06-.25.12-.5.08-.78-.03-.28-.2-.51-.27-.73-.05-.15-.17-.24-.3-.28a3.19 3.19 0 00-.72-.09zm0 .21c.1 0 .22 0 .32.02.11.01.24.03.33.06.1.04.15.08.18.15.08.26.23.48.25.7.03.21-.02.44-.08.68-.06.25-.16.48-.34.67-.1.11-.27.22-.4.25l-.53.07-.19-.02a.1.1 0 00-.01 0c-.23-.05-.38-.09-.52-.22C.82 6.94.69 6.84.6 6.7a1.41 1.41 0 01-.1-.85c.01-.17.06-.35.15-.5.11-.15.24-.3.4-.39.26-.17.57-.23.9-.23zm2.87.5a.96.96 0 00-.84.63c-.06.18-.09.4-.06.6-.06.54.22.92.61 1.08.4.15.87.12 1.26-.08.65-.33.74-1.36.06-1.9a1.46 1.46 0 00-1.03-.33zm.02.25c.29-.03.62.07.86.27.56.45.47 1.25-.01 1.5-.33.16-.76.18-1.07.06-.32-.13-.52-.38-.46-.83a.12.12 0 000-.04 1 1 0 01.05-.5c.1-.3.34-.44.63-.46z" />
</svg>
