<svg xmlns="http://www.w3.org/2000/svg" viewBox="0 0 7.94 7.94">
    <path fill="#fd6b21" d="M5.32.1c-.46.02-.83.25-1.1.55-.27.3-.46.67-.6 1.01-.47 1.16-.77 2.64-.2 3.84.25.51.48 1.14.89 1.65.4.5.99.67 1.5.53a1.8 1.8 0 001.2-1.18c.27-.76.73-1.65.6-2.6v.02c0-.39.03-.83-.01-1.27-.04-.44-.17-.9-.5-1.25-.2-.21-.4-.52-.66-.8A1.5 1.5 0 005.32.1zm.02.53c.3 0 .5.12.72.34.21.22.4.53.65.79.23.25.33.56.36.94.04.38.01.8.02 1.23v.03c.1.75-.3 1.55-.58 2.36-.17.47-.5.76-.83.85-.34.09-.67 0-.96-.35-.33-.42-.56-1-.82-1.55-.46-.98-.23-2.33.21-3.4.13-.31.3-.63.5-.86.21-.23.44-.37.73-.38z" />
    <path fill="#444" d="M3.09 2.4a.16.17 0 00-.09.33c.57.4 1.2.67 1.83.92-1.4-.14-2.8.15-4.06-.41a.16.17 0 00-.1-.03.16.17 0 00-.04 0 .16.17 0 00-.01.01.16.17 0 00-.1.21c.03.4-.1.72-.07 1.17v-.01.09a.16.17 0 000 .01.16.17 0 000 .02.16.17 0 00.01.02.16.17 0 000 .02.16.17 0 00.01 0 .16.17 0 000 .01.16.17 0 00.01.01.16.17 0 00.01.02.16.17 0 00.02.02.16.17 0 00.01 0 .16.17 0 00.01.01.16.17 0 00.01 0 .16.17 0 00.02.01.16.17 0 00.02 0 .16.17 0 00.01.01.16.17 0 00.02 0h.01c.8-.03 1.66-.35 2.48-.57.22-.06.44-.1.65-.14l.46-.03.4-.02c.14.02.28.04.4.08l-.3.18c-.58.33-1.3.7-1.64 1a.16.17 0 10.2.27c.28-.23 1-.63 1.6-.96a7.75 7.75 0 00.89-.6.16.17 0 00.06-.31.24.24 0 00-.12-.1c-.9-.34-1.76-.68-2.52-1.2a.16.17 0 00-.1-.03zM.84 3.65c.2.07.38.13.57.17-.19 0-.38-.02-.57-.04v-.13zm-.04.48c.46.04.92.05 1.38.05-.5.15-.97.27-1.4.31 0-.11 0-.24.02-.36z" />
</svg>
