<svg xmlns="http://www.w3.org/2000/svg" viewBox="0 0 7.94 7.94">
  <path fill="#2ecc71" d="M4.52.32a.14.14 0 00-.03 0c-.97.07-2.02.13-2.82.73-1 .75-1.55 2-1.3 3.23a3.9 3.9 0 001.95 2.85c1.15.7 2.65.83 3.76-.08a4.04 4.04 0 001.53-3C7.58 2.94 7.3 1.8 6.37 1A2.9 2.9 0 004.54.32a.14.14 0 00-.02 0zm.01.28a2.6 2.6 0 011.65.62C7.04 1.95 7.3 3 7.32 4.05c.03 1-.62 2.13-1.42 2.79-1.01.82-2.35.7-3.43.05C1.24 6.15.9 5.33.66 4.22a2.96 2.96 0 011.18-2.95C2.56.73 3.56.66 4.54.6zm-.78.3L3.7.91c-.05.02-.07.05-.11.08a4.2 4.2 0 00-.31.26c-.5.47-1.3 1.3-1.72 1.66l-.4.33c.2-.33.6-.86.86-1.09a7.4 7.4 0 00.84-.86c.01-.02.03-.03.02-.08v-.04l-.03-.05-.04-.03-.04-.02h-.1a11 11 0 00-1.61 1.25.14.14 0 10.2.2l.33-.26c-.28.3-.59.65-.74.93a.75.75 0 00-.1.25c-.01.04-.02.1.03.16s.14.06.18.05c.1-.01.18-.07.3-.15.13-.09.29-.22.49-.4.36-.3.96-.91 1.43-1.37l-.1.13a40.7 40.7 0 00-1.79 2.8.84.84 0 00-.05.14v.07c0 .03 0 .1.06.13.06.04.11.03.14.02l.07-.04.13-.12 2.19-2.13.72-.7C3.82 3.3 2.94 4.64 2.3 5.66a2.3 2.3 0 00-.2.41c-.03.05-.05.09-.02.16.01.04.05.09.1.1.04.02.08.01.1 0 .1-.02.16-.08.26-.15.1-.08.2-.18.32-.3.47-.44 1.11-1.13 1.28-1.27.44-.41 1.11-1.28 1.64-1.92l.35-.39a19.1 19.1 0 01-1.83 3.1c-.39.55-.72 1.03-.9 1.31a2.05 2.05 0 00-.13.26c0 .02-.02.05 0 .11.01.03.04.07.08.09h.09c.04 0 .06-.01.09-.03L3.7 7c.4-.33 1.2-1.17 1.88-1.86.34-.32.63-.6.84-.78-.28.85-.63 1.71-1.04 2.45a.14.14 0 10.25.13c.46-.83.87-1.8 1.16-2.75.02-.05.04-.1 0-.18a.19.19 0 00-.12-.08.2.2 0 00-.1 0c-.1.04-.18.1-.3.2-.22.18-.54.48-.88.82l-1.41 1.4.55-.81c.77-1.12 1.75-2.55 2.03-3.44a.96.96 0 00.04-.17c0-.06.01-.11-.04-.18a.19.19 0 00-.13-.05.2.2 0 00-.09.01.47.47 0 00-.12.08c-.16.14-.39.4-.65.72-.53.65-1.22 1.52-1.63 1.9-.2.18-.8.84-1.27 1.28l-.14.12.01-.02c.75-1.24 1.94-2.92 2.72-4.4l.02-.05v-.02a3.59 3.59 0 00-.02-.08 7.2 7.2 0 00-.1-.06h-.03-.02-.02l-.03.02-.1.07-.3.28c-.27.24-.64.6-1.04.98L1.82 4.31l.23-.4A41.4 41.4 0 013.87 1.2c.03-.05.05-.08.05-.15 0-.02 0-.04-.02-.07a.16.16 0 00-.07-.07.15.15 0 00-.08-.01z" />
</svg>
