<svg xmlns="http://www.w3.org/2000/svg" viewBox="0 0 7.94 7.94">
  <path fill="#e73c3c" d="M6.3.42a.13.13 0 00-.06.01C6.19.46 6.1.47 6 .56c-.3.28-.84.95-1.22 1.3-.09.08-.12.2-.2.28-.39.26-.74.56-1.07.89a18.76 18.76 0 00-2.05-1.85c-.15-.1-.22-.21-.32-.32C1.1.79 1.01.68.97.66L.94.6.9.6H.9L.86.57H.81L.75.6a10.37 10.37 0 00-.04.1v.04c0 .02.01.03.02.03l.02.04.18.19.17.2c.64.8 1.47 1.38 2.1 2.14C2.14 4.52 1.3 5.97.43 7.25a.13.13 0 10.22.16c.88-1.3 1.78-2.6 2.82-3.74 0 .02.02.03.03.04-.41.6-.85 1.18-1.26 1.76-.1.16-.22.3-.33.45l-.71.88-.19.23-.1.13v.02l-.02.01a3.98 3.98 0 000 .07l.05.09.09.02h.04l.02-.02.02-.01.05-.05.21-.24c.27-.3.5-.64.74-.96l.21-.27.13-.18c.4-.57.8-1.14 1.23-1.67.68.95 1.4 1.82 2.26 2.63.39.36.82.65 1.13 1a.13.13 0 10.2-.17c-.34-.39-.78-.69-1.15-1.03-.66-.62-1.18-1.32-1.72-2.02.84.95 1.8 1.7 2.65 2.56a.13.13 0 10.2-.19c-.96-.96-2.05-1.73-2.9-2.78-.1-.14-.21-.27-.33-.4l.11-.14C5 2.45 6 1.58 7.08.83l.03-.02-.13-.23-.02.01-.02.02-.1.06-.46.32c-.33.23-.7.45-.97.6.29-.32.62-.68.78-.83.05-.05.07-.05.16-.09A.13.13 0 006.3.42zm-.68 1.34c-.4.34-.81.66-1.18 1.04l.1-.14c.3-.22.5-.58.84-.75l.24-.15z" />
</svg>
