<svg xmlns="http://www.w3.org/2000/svg" viewBox="0 0 7.94 7.94">
  <path fill="#444" d="M2.26.12c-.4 0-.74.03-1.03.18-.3.16-.52.44-.68.86C.4 1.6.32 2.17.3 2.96.24 4.2-.01 5.24.27 6.07c.13.42.4.78.87 1.05a5.6 5.6 0 002.1.57c1.26.15 2.3.34 3.07 0 .4-.17.71-.48.93-.96.22-.48.35-1.14.4-2.03.05-1.16.26-2.32 0-3.2A1.6 1.6 0 006.75.48c-.46-.22-1.1-.3-2-.2-.33.03-.67 0-1-.04L3.61.2v.03c-.5-.05-.96-.1-1.35-.12zm.05.26l.65.05-.08.03-.55.24c-.44.2-1 .44-1.29.5a.13.13 0 00.06.26c.35-.08.9-.33 1.34-.53l.14-.06A194.63 194.63 0 00.6 2.9l-.05.06c.02-.77.1-1.32.24-1.7.14-.4.32-.6.56-.73.24-.12.55-.16.95-.15zm.82.06l.6.06.15.01c.3.03.6.06.9.03a3.6 3.6 0 011.87.18c.4.19.6.47.73.86.24.77.05 1.93 0 3.1-.03.55-.1.98-.18 1.35a.13.13 0 00-.21-.12c-.38.23-.78.44-1.16.7l.22-.43A24.35 24.35 0 016.9 4.7c.02-.04.04-.08.03-.15a.17.17 0 00-.07-.1.17.17 0 00-.1-.03.32.32 0 00-.14.04c-.16.08-.4.26-.7.5-.3.25-.57.53-.88.83.62-.88 1.25-1.76 2.02-2.5a4.3 4.3 0 00.3-.34v-.03l.01-.03v-.03a3.44 3.44 0 00-.04-.07 2.34 2.34 0 00-.06-.04H7.2a1.93 1.93 0 00-.22.12c-.24.16-.61.43-.73.5-1.08.67-2.1 1.45-3.06 2.28.45-.58.88-1.17 1.37-1.7.28-.3.73-.74 1.11-1.15.2-.2.38-.4.52-.56.15-.17.25-.3.3-.44a.76.76 0 00.04-.2c0-.07 0-.13-.05-.19a.24.24 0 00-.17-.08.46.46 0 00-.17.03c-.23.08-.52.28-.86.53-.68.52-1.51 1.25-1.95 1.62-.52.43-1.03.9-1.55 1.35.6-.69 1.32-1.5 1.74-1.85C4.35 2.34 5.1 1.56 5.93 1l.12-.08.04-.03.03-.03.02-.03a6.48 6.48 0 000-.1L6.1.68A9.78 9.78 0 006 .64l-.05.02-.08.04-.69.4c-.6.38-1.4.9-1.78 1.22-.63.53-1.31.98-1.97 1.5l.12-.15c.68-.86 1.5-1.54 2.28-2.3.11-.12.2-.2.25-.28.06-.07.1-.1.11-.19V.82A.16.16 0 004.1.74C4.05.7 4 .72 3.99.73a.8.8 0 00-.18.07c-.25.12-.67.37-.89.46-.42.18-.78.54-1.18.84L3.13.68c.02-.02.04-.03.06-.1V.57.52L3.17.48 3.14.45zm.5.74c-.76.76-1.59 1.45-2.29 2.33l-.55.7-.08.13a.21.21 0 00-.01.08v.05a3.32 3.32 0 00.08.07l.02.01h.08c.07-.02.1-.05.17-.1l.27-.21c.72-.62 1.5-1.1 2.25-1.72.15-.13.48-.33.75-.51-.31.28-.64.54-.96.8-.53.43-1.4 1.4-2.03 2.16a19.23 19.23 0 00-.77.97c0 .01-.02.02-.02.06v.03L.51 6C.3 5.31.48 4.34.54 3.16l.07.04h.08v-.01l.05-.03A7.83 7.83 0 013.03 1.5c.17-.07.4-.2.6-.32zm2.64.42l-.03.11c-.02.06-.11.2-.25.36-.13.16-.31.35-.5.55-.39.4-.83.83-1.12 1.15a32.26 32.26 0 00-2.4 3.01v.04l-.01.02v.03a7.34 7.34 0 00.04.08l.03.03.07.01h.03l.03-.02c.02 0 .02-.01.03-.02l.04-.04.12-.12a32.54 32.54 0 00.48-.54A21.35 21.35 0 016.39 3.6l.21-.15c-.86.9-1.63 1.87-2.33 2.89-.12.18-.25.36-.3.48l-.02.04v.1l.06.06.06.02h.04l.05-.02.04-.04.27-.3C4.8 6.3 5.53 5.62 6.1 5.16c.19-.15.3-.22.42-.3a24.2 24.2 0 00-1.01 1.81c-.04.08-.06.13-.07.2v.08l.02.03.03.03a2.4 2.4 0 00.08.03h.03l.04-.02A.21.21 0 005.7 7c.42-.35.92-.56 1.43-.85a.13.13 0 00.06-.06c-.05.2-.1.39-.18.54-.2.44-.45.68-.79.83-.67.28-1.68.13-2.95-.02a5.38 5.38 0 01-1.98-.54 1.53 1.53 0 01-.71-.78l.01.02a5.8 5.8 0 00.1.03h.04l.05-.05a4.17 4.17 0 00.18-.18c.77-.81 1.68-1.5 2.55-2.22.44-.37 1.27-1.1 1.94-1.6.33-.26.63-.45.78-.5l.05-.01z" />
</svg>
