<svg xmlns="http://www.w3.org/2000/svg" viewBox="0 0 7.94 7.94">
  <path fill="#e73c3c" d="M3.75 1.67a.05.04 0 00-.02 0l-.08.05c-.11.1-.31.32-.45.44-.03.02-.05.06-.07.09-.15.09-.28.19-.4.3-.23-.23-.49-.44-.75-.62l-.12-.11-.06-.07-.01-.02h-.02-.01-.02a8.5 8.5 0 00-.04.04v.02l.02.02.06.06.07.06c.23.28.53.47.77.73-.4.4-.7.88-1.02 1.32a.05.04 0 10.08.05c.32-.44.65-.88 1.03-1.26l.01.01-.46.6-.12.14-.26.3-.07.08-.04.04v.01a1.27 1.27 0 000 .03l.01.03h.07l.01-.02.08-.08c.1-.1.18-.22.27-.33l.08-.09.05-.06.45-.56c.25.32.51.61.83.88.14.12.3.22.41.34a.05.04 0 10.07-.06c-.12-.13-.28-.23-.42-.34-.24-.21-.43-.45-.63-.69.3.32.66.58.98.87a.05.04 0 10.06-.06c-.35-.33-.74-.59-1.05-.94l-.13-.14.04-.05c.32-.33.69-.62 1.1-.87a.03.03 0 000-.01L4 1.72v.01h-.01l-.04.03-.17.1-.35.2.28-.28.06-.03a.05.04 0 00-.02-.08zm-.24.45c-.15.12-.3.22-.44.35l.04-.04c.1-.08.18-.2.3-.26.03 0 .07-.03.1-.05z" />
  <path fill="#444" d="M3.3.46c-.26.01-.51.04-.73.09-.44.08-.9.2-1.3.5-.55.42-.89 1.27-.77 2 .12.78.5 1.54 1.2 1.98.37.2.74.26 1.12.27.58.01 1.12-.19 1.56-.53.24.3.5.55.79.77.45.37.93.66 1.35 1.03l.42.39a1.62 1.62 0 00.14.1l.07.03h.04l.05-.04A2.26 2.26 0 007.27 7v-.02l-.01-.08a.94.94 0 00-.09-.13l-.13-.16c.1.1.24.18.34.29a.11.11 0 10.16-.15c-.4-.43-.86-.76-1.31-1.1l-.07-.08c-.36-.37-.75-.67-1.1-1l-.24-.22.13-.16c.45-.65.6-1.5.35-2.25C5.1 1.33 4.7.66 4.03.51A2.88 2.88 0 003.3.46zm.01.32c.24 0 .47 0 .65.04.5.11.85.66 1.04 1.22.22.64.08 1.38-.32 1.96a2.2 2.2 0 01-1.86.98c-.34-.01-.65-.06-.95-.23A2.46 2.46 0 01.82 3.01a2 2 0 01.65-1.71A2.7 2.7 0 012.63.86c.2-.04.45-.07.68-.08zm1.36 3.74l.2.19c.05.03.06.05.1.09.32.3.73.7.97.9l.14.1c.13.14.23.29.35.43-.37-.3-.76-.56-1.13-.86a4.87 4.87 0 01-.75-.74l.12-.11z" />
</svg>
