<svg xmlns="http://www.w3.org/2000/svg" viewBox="0 0 7.94 7.94">
  <path fill="#444" d="M1.89 1c-.16 0-.3.02-.4.09-.26.14-.34.44-.3.7.05.21.22.37.42.5a.13.13 0 00.09.1.13.13 0 00.04 0h.27c.1 0 .21 0 .31-.07.14-.1.28-.22.36-.37a.54.54 0 00-.03-.56.9.9 0 00-.6-.37L1.89 1zm-.01.27H2c.16.04.33.11.43.26.07.12.06.2.01.3-.05.1-.15.2-.26.27a.37.37 0 01-.18.03h-.22a.52.52 0 01-.32-.4c-.04-.17 0-.33.15-.42a.6.6 0 01.27-.04zm4.33.23a.78.78 0 00-.52.15c-.17.12-.22.33-.22.53 0 .19.04.38.13.51.22.27.56.3.8.16a.87.87 0 00.44-.79c-.01-.28-.22-.47-.46-.54a.86.86 0 00-.17-.02zm-.01.26l.12.02c.15.04.25.12.25.29a.6.6 0 01-.3.55c-.15.09-.32.08-.45-.09a.73.73 0 01-.09-.35c0-.14.05-.27.12-.32.09-.07.22-.1.35-.1zM3.04 3.51a.52.52 0 00-.49.34c-.06.15-.05.28-.07.38a.13.13 0 000 .06c.04.16.12.29.24.36.11.07.25.08.38.06a.72.72 0 00.55-.57.5.5 0 00-.1-.4.65.65 0 00-.51-.23zm0 .26a.4.4 0 01.12.01c.07.03.14.07.18.12.04.05.06.1.05.18-.05.2-.2.34-.34.37a.26.26 0 01-.2-.03c-.04-.03-.08-.09-.1-.18.02-.12.02-.23.05-.3a.23.23 0 01.14-.15.3.3 0 01.1-.02zM5.9 5.43c-.07 0-.15 0-.22.03a.9.9 0 00-.36.23c-.1.1-.18.23-.22.36a.54.54 0 000 .38c.07.23.26.39.48.45a.8.8 0 001.03-.75c-.01-.26-.18-.5-.48-.65a.56.56 0 00-.23-.05zm-4.14.15c-.37.05-.6.28-.64.55-.05.26.06.55.27.75a.13.13 0 00.02.01c.2.13.48.2.73.15.25-.04.5-.22.55-.53a.79.79 0 00-.24-.68.83.83 0 00-.7-.25zm4.13.1a.3.3 0 01.12.04c.24.12.33.27.33.42 0 .14-.08.3-.25.43-.1.08-.28.1-.44.06-.15-.05-.27-.14-.3-.27v-.02c-.03-.05-.03-.12 0-.21a.72.72 0 01.41-.42.36.36 0 01.13-.02zm-4.1.16c.17-.02.34.05.47.18.13.13.2.3.17.45-.04.2-.16.28-.33.31a.86.86 0 01-.53-.1.58.58 0 01-.19-.5c.03-.17.14-.3.41-.34zm3.3.56v.02z" />
</svg>
