<svg xmlns="http://www.w3.org/2000/svg" viewBox="0 0 7.94 7.94">
  <path fill="#444" d="M7.23.4a.14.14 0 01.13.13l.05.46c.07.5-.02.98.02 1.43 0 .04 0 .1-.04.15a.2.2 0 01-.13.08.49.49 0 01-.22-.02l-.35-.1c-.25 0-.5-.03-.72-.01-.28.02-.53-.04-.76-.04a.14.14 0 110-.28c.27 0 .52.06.74.04.26-.02.52.01.75.02.05 0 .1 0 .15.02A2.73 2.73 0 004.76.96a3.45 3.45 0 00-2.39.78A2.99 2.99 0 001.2 3.86c-.04.81.32 1.7 1.37 2.53 1.19.93 2.97 1.03 4.07-.16a.18.18 0 11.26.24c-1.24 1.34-3.24 1.23-4.55.2C1.22 5.77.8 4.76.84 3.83c.05-.94.57-1.78 1.3-2.37A3.8 3.8 0 014.8.6c.88.08 1.73.53 2.35 1.47 0-.36.03-.71-.01-1.05a4.91 4.91 0 01-.05-.49.14.14 0 01.15-.14z" />
</svg>
