<svg xmlns="http://www.w3.org/2000/svg" viewBox="0 0 7.94 7.94">
  <path fill="#444" d="M1.68.4a.57.57 0 00-.35.13.13.13 0 00-.05.11c.07.98-.23 2.01-.02 3.04.1.5.04 1.04.07 1.6.03.39 0 .69-.04 1.1-.01.19-.03.36.06.51.04.08.11.14.2.18.09.04.2.05.33.06.71.02 1.41-.07 2.1-.08.42 0 .89.14 1.37.07.1-.02.29.04.47.03.09 0 .2-.04.27-.13.06-.1.07-.22.05-.37-.11-.88-.07-1.77-.05-2.67 0-.42-.14-.83-.02-1.13a.65.65 0 00-.13-.69c-.15-.16-.33-.28-.44-.4-.26-.29-.55-.5-.79-.77C4.4.63 3.98.52 3.48.54c-.44 0-.85.02-1.27-.06C2.1.46 1.95.42 1.8.4a1 1 0 00-.12 0zm.1.27c.12.01.26.05.38.07.46.08.88.07 1.32.06.18 0 .33 0 .46.03 0 .44-.01.79.01 1.06.03.28.08.5.23.64.15.15.36.2.65.2.26 0 .6-.04 1.03-.11l-.03.13c-.17.43 0 .87-.01 1.23-.01.89-.06 1.8.06 2.7.01.12 0 .17-.01.18 0 .01-.01.02-.07.02-.1 0-.29-.05-.49-.02-.4.06-.85-.08-1.33-.08-.71.01-1.4.1-2.1.08a.68.68 0 01-.23-.03c-.04-.02-.06-.04-.07-.07-.03-.05-.04-.17-.02-.35.03-.42.06-.74.04-1.15-.04-.52.04-1.08-.08-1.63-.19-.91.07-1.9.03-2.9a.38.38 0 01.23-.06zM4.2.92a1 1 0 01.3.24c.26.3.55.51.8.78.14.16.32.27.43.4l.02.02c-.4.07-.71.11-.93.11-.26 0-.39-.04-.46-.12-.08-.08-.13-.23-.15-.48-.02-.23-.02-.55-.01-.95z" />
</svg>
