<svg xmlns="http://www.w3.org/2000/svg" viewBox="0 0 7.94 7.94">
  <path fill="#2ecc71" d="M4.37 1.4a.1.1 0 00-.02 0c-.7.04-1.48.1-2.07.51a2.25 2.25 0 00-.94 2.29c.17.8.47 1.46 1.42 2.02.84.49 1.94.59 2.75-.06a2.83 2.83 0 001.12-2.13c-.02-.78-.22-1.58-.9-2.14a2.17 2.17 0 00-1.35-.5.1.1 0 00-.01 0zm.01.2c.45 0 .86.15 1.2.43.64.52.83 1.25.84 2 .02.72-.45 1.52-1.04 1.98-.74.59-1.72.5-2.5.04a2.52 2.52 0 01-1.34-1.89c-.17-.79.2-1.6.87-2.09.53-.38 1.26-.43 1.97-.47zm-.57.2l-.04.02-.08.05c-.06.04-.14.1-.23.19-.36.33-.95.92-1.26 1.17l-.3.23c.15-.23.45-.6.64-.77a5.34 5.34 0 00.62-.6l.01-.06V2l-.02-.03-.03-.03h-.03c-.04-.02-.05-.01-.07 0-.06.01-.1.04-.16.08-.26.17-.75.54-1.02.8a.1.1 0 10.15.13l.23-.18c-.2.21-.43.46-.54.66a.52.52 0 00-.08.17c0 .03 0 .08.03.12.04.04.1.04.14.04a.57.57 0 00.21-.11c.1-.07.21-.15.36-.28.26-.22.7-.65 1.05-.98l-.07.1A28.76 28.76 0 002 4.47a.58.58 0 00-.04.1v.05c0 .02 0 .06.04.09s.09.02.1.01c.03 0 .04-.02.06-.03a.77.77 0 00.1-.08c.33-.31 1-.96 1.6-1.51l.52-.49c-.54.89-1.18 1.83-1.64 2.56-.08.13-.13.22-.15.3-.01.03-.03.05-.01.1.01.03.04.07.07.08h.08c.08-.02.12-.06.19-.11l.23-.2c.35-.33.82-.81.94-.91.32-.3.82-.9 1.2-1.36l.26-.28c-.24.58-.82 1.47-1.34 2.2-.29.39-.53.72-.66.92a1.44 1.44 0 00-.1.19c0 .01-.02.03 0 .08a.12.12 0 00.13.06l.06-.02a.92.92 0 00.13-.1c.28-.23.87-.82 1.38-1.3.24-.24.46-.44.6-.56-.2.6-.45 1.2-.75 1.73a.1.1 0 10.18.1c.33-.6.64-1.28.85-1.95.01-.04.03-.07 0-.13a.14.14 0 00-.09-.06h-.07a10.38 10.38 0 00-.87.72l-1.03 1 .4-.58A11.9 11.9 0 005.9 2.53c0-.03.01-.07-.03-.12a.14.14 0 00-.16-.03 4.6 4.6 0 00-.57.57c-.38.46-.89 1.07-1.18 1.34-.15.13-.6.6-.94.9l-.1.1v-.02c.56-.88 1.43-2.06 2-3.12l.01-.03v-.01a2.46 2.46 0 00-.01-.06 5.18 5.18 0 00-.07-.04h-.02-.02-.01l-.03.01-.07.05c-.05.04-.13.1-.22.2-.2.17-.47.42-.76.7L2.4 4.21l.17-.28A29.25 29.25 0 013.9 2.02c.01-.04.03-.05.03-.1a.1.1 0 00-.01-.05.12.12 0 00-.06-.06.11.11 0 00-.05 0z" />
</svg>
