<svg xmlns="http://www.w3.org/2000/svg" viewBox="0 0 7.94 7.94">
  <path fill="#e73c3c" d="M5.87 1.3a.1.1 0 00-.05 0c-.05.02-.11.04-.2.1-.23.21-.68.72-1 .99-.07.06-.1.15-.16.2a6 6 0 00-.88.68c-.53-.51-1.1-.98-1.7-1.4-.11-.08-.18-.16-.26-.24l-.14-.16-.03-.03-.03-.02h-.01-.03-.04l-.05.02a7.76 7.76 0 00-.03.08v.03l.01.02.03.03.14.14.14.15c.53.61 1.21 1.05 1.74 1.63-.89.88-1.58 1.98-2.3 2.96a.1.1 0 10.18.11 25.6 25.6 0 012.32-2.83l.03.03-1.03 1.34c-.1.11-.2.22-.28.33l-.58.67-.16.18-.08.1-.02.02a2.85 2.85 0 000 .05l.04.07.08.01h.04l.02-.02.04-.04.18-.18c.22-.22.4-.48.6-.73l.18-.2.1-.14c.34-.43.67-.86 1.02-1.27.56.73 1.15 1.38 1.87 2 .32.27.67.5.93.76a.1.1 0 10.16-.13c-.28-.3-.64-.52-.94-.78-.55-.47-.98-1-1.42-1.54.68.72 1.48 1.3 2.18 1.95a.1.1 0 10.16-.14c-.79-.74-1.68-1.32-2.38-2.12l-.28-.3.1-.1c.7-.75 1.54-1.4 2.44-1.97l.01-.02a.06.06 0 00.01 0l-.11-.18-.02.02H6.4l-.08.06-.38.24c-.28.17-.59.34-.8.45.23-.24.5-.51.64-.63.04-.04.06-.03.13-.07a.1.1 0 00-.04-.19zM5.3 2.3c-.33.26-.67.5-.97.79l.08-.1c.24-.18.4-.45.69-.57l.2-.12z" />
</svg>
