<svg xmlns="http://www.w3.org/2000/svg" viewBox="0 0 7.94 7.94">
  <path fill="#444" d="M1.04.4A.14.14 0 00.9.53C.9.68.88.83.86 1c-.07.5.02.98-.03 1.43 0 .04 0 .1.04.15.04.05.1.07.14.08.08.01.15 0 .21-.02l.35-.1c.26 0 .5-.03.73-.01.28.02.53-.04.76-.04a.14.14 0 100-.28c-.27 0-.52.06-.74.04-.27-.02-.52.01-.75.02-.06 0-.1 0-.16.02A2.73 2.73 0 013.51.96c.84-.07 1.71.24 2.39.78.67.54 1.13 1.3 1.18 2.12.04.81-.32 1.7-1.37 2.53-1.19.93-2.97 1.03-4.07-.16a.18.18 0 10-.26.24c1.24 1.34 3.24 1.23 4.55.2 1.11-.89 1.55-1.9 1.5-2.83a3.33 3.33 0 00-1.31-2.37A3.8 3.8 0 003.48.6c-.88.08-1.73.53-2.36 1.47 0-.36-.03-.71.02-1.05l.05-.49A.14.14 0 001.04.4z" />
</svg>
